<svg width="188" height="39" viewBox="0 0 188 39" fill="none" xmlns="http://www.w3.org/2000/svg">
<path d="M17.6484 17.6758H6.39844V25.293H19.6016V30H0.539062V1.5625H19.5625V6.30859H6.39844V13.0859H17.6484V17.6758ZM34.9141 30C34.6536 29.4922 34.4648 28.8607 34.3477 28.1055C32.9805 29.6289 31.2031 30.3906 29.0156 30.3906C26.9453 30.3906 25.2266 29.7917 23.8594 28.5938C22.5052 27.3958 21.8281 25.8854 21.8281 24.0625C21.8281 21.8229 22.6549 20.1042 24.3086 18.9062C25.9753 17.7083 28.3776 17.1029 31.5156 17.0898H34.1133V15.8789C34.1133 14.9023 33.8594 14.1211 33.3516 13.5352C32.8568 12.9492 32.069 12.6562 30.9883 12.6562C30.0378 12.6562 29.2891 12.8841 28.7422 13.3398C28.2083 13.7956 27.9414 14.4206 27.9414 15.2148H22.2969C22.2969 13.9909 22.6745 12.8581 23.4297 11.8164C24.1849 10.7747 25.2526 9.96094 26.6328 9.375C28.013 8.77604 29.5625 8.47656 31.2812 8.47656C33.8854 8.47656 35.9492 9.13411 37.4727 10.4492C39.0091 11.7513 39.7773 13.5872 39.7773 15.957V25.1172C39.7904 27.1224 40.0703 28.6393 40.6172 29.668V30H34.9141ZM30.2461 26.0742C31.0794 26.0742 31.8477 25.8919 32.5508 25.5273C33.2539 25.1497 33.7747 24.6484 34.1133 24.0234V20.3906H32.0039C29.1784 20.3906 27.6745 21.3672 27.4922 23.3203L27.4727 23.6523C27.4727 24.3555 27.7201 24.9349 28.2148 25.3906C28.7096 25.8464 29.3867 26.0742 30.2461 26.0742ZM55.5586 24.1602C55.5586 23.4701 55.2135 22.9297 54.5234 22.5391C53.8464 22.1354 52.7526 21.7773 51.2422 21.4648C46.2161 20.4102 43.7031 18.2747 43.7031 15.0586C43.7031 13.1836 44.4779 11.6211 46.0273 10.3711C47.5898 9.10807 49.6276 8.47656 52.1406 8.47656C54.8229 8.47656 56.9648 9.10807 58.5664 10.3711C60.181 11.6341 60.9883 13.2747 60.9883 15.293H55.3438C55.3438 14.4857 55.0833 13.8216 54.5625 13.3008C54.0417 12.7669 53.2279 12.5 52.1211 12.5C51.1706 12.5 50.4349 12.7148 49.9141 13.1445C49.3932 13.5742 49.1328 14.1211 49.1328 14.7852C49.1328 15.4102 49.4258 15.918 50.0117 16.3086C50.6107 16.6862 51.6133 17.0182 53.0195 17.3047C54.4258 17.5781 55.6107 17.8906 56.5742 18.2422C59.556 19.3359 61.0469 21.2305 61.0469 23.9258C61.0469 25.8529 60.2201 27.4154 58.5664 28.6133C56.9128 29.7982 54.7773 30.3906 52.1602 30.3906C50.3893 30.3906 48.8138 30.0781 47.4336 29.4531C46.0664 28.8151 44.9922 27.9492 44.2109 26.8555C43.4297 25.7487 43.0391 24.5573 43.0391 23.2812H48.3906C48.4427 24.2839 48.8138 25.0521 49.5039 25.5859C50.194 26.1198 51.1185 26.3867 52.2773 26.3867C53.3581 26.3867 54.1719 26.1849 54.7188 25.7812C55.2786 25.3646 55.5586 24.8242 55.5586 24.1602ZM72.5898 22.0117L76.4961 8.86719H82.5508L74.0547 33.2812L73.5859 34.3945C72.3229 37.1549 70.2396 38.5352 67.3359 38.5352C66.5156 38.5352 65.6823 38.4115 64.8359 38.1641V33.8867L65.6953 33.9062C66.763 33.9062 67.5573 33.7435 68.0781 33.418C68.612 33.0924 69.0286 32.5521 69.3281 31.7969L69.9922 30.0586L62.5898 8.86719H68.6641L72.5898 22.0117ZM115.344 6.30859H106.633V30H100.773V6.30859H92.1797V1.5625H115.344V6.30859ZM113.391 19.2383C113.391 17.1419 113.794 15.2734 114.602 13.6328C115.409 11.9922 116.568 10.7227 118.078 9.82422C119.602 8.92578 121.366 8.47656 123.371 8.47656C126.223 8.47656 128.547 9.34896 130.344 11.0938C132.154 12.8385 133.163 15.2083 133.371 18.2031L133.41 19.6484C133.41 22.8906 132.505 25.4948 130.695 27.4609C128.885 29.4141 126.457 30.3906 123.41 30.3906C120.363 30.3906 117.928 29.4141 116.105 27.4609C114.296 25.5078 113.391 22.8516 113.391 19.4922V19.2383ZM119.035 19.6484C119.035 21.6536 119.413 23.1901 120.168 24.2578C120.923 25.3125 122.004 25.8398 123.41 25.8398C124.777 25.8398 125.845 25.319 126.613 24.2773C127.382 23.2227 127.766 21.543 127.766 19.2383C127.766 17.2721 127.382 15.7487 126.613 14.668C125.845 13.5872 124.764 13.0469 123.371 13.0469C121.991 13.0469 120.923 13.5872 120.168 14.668C119.413 15.7357 119.035 17.3958 119.035 19.6484ZM136.008 19.2383C136.008 17.1419 136.411 15.2734 137.219 13.6328C138.026 11.9922 139.185 10.7227 140.695 9.82422C142.219 8.92578 143.983 8.47656 145.988 8.47656C148.84 8.47656 151.164 9.34896 152.961 11.0938C154.771 12.8385 155.78 15.2083 155.988 18.2031L156.027 19.6484C156.027 22.8906 155.122 25.4948 153.312 27.4609C151.503 29.4141 149.074 30.3906 146.027 30.3906C142.98 30.3906 140.546 29.4141 138.723 27.4609C136.913 25.5078 136.008 22.8516 136.008 19.4922V19.2383ZM141.652 19.6484C141.652 21.6536 142.03 23.1901 142.785 24.2578C143.54 25.3125 144.621 25.8398 146.027 25.8398C147.395 25.8398 148.462 25.319 149.23 24.2773C149.999 23.2227 150.383 21.543 150.383 19.2383C150.383 17.2721 149.999 15.7487 149.23 14.668C148.462 13.5872 147.382 13.0469 145.988 13.0469C144.608 13.0469 143.54 13.5872 142.785 14.668C142.03 15.7357 141.652 17.3958 141.652 19.6484ZM165.461 30H159.797V0H165.461V30ZM181.574 24.1602C181.574 23.4701 181.229 22.9297 180.539 22.5391C179.862 22.1354 178.768 21.7773 177.258 21.4648C172.232 20.4102 169.719 18.2747 169.719 15.0586C169.719 13.1836 170.493 11.6211 172.043 10.3711C173.605 9.10807 175.643 8.47656 178.156 8.47656C180.839 8.47656 182.98 9.10807 184.582 10.3711C186.197 11.6341 187.004 13.2747 187.004 15.293H181.359C181.359 14.4857 181.099 13.8216 180.578 13.3008C180.057 12.7669 179.243 12.5 178.137 12.5C177.186 12.5 176.451 12.7148 175.93 13.1445C175.409 13.5742 175.148 14.1211 175.148 14.7852C175.148 15.4102 175.441 15.918 176.027 16.3086C176.626 16.6862 177.629 17.0182 179.035 17.3047C180.441 17.5781 181.626 17.8906 182.59 18.2422C185.572 19.3359 187.062 21.2305 187.062 23.9258C187.062 25.8529 186.236 27.4154 184.582 28.6133C182.928 29.7982 180.793 30.3906 178.176 30.3906C176.405 30.3906 174.829 30.0781 173.449 29.4531C172.082 28.8151 171.008 27.9492 170.227 26.8555C169.445 25.7487 169.055 24.5573 169.055 23.2812H174.406C174.458 24.2839 174.829 25.0521 175.52 25.5859C176.21 26.1198 177.134 26.3867 178.293 26.3867C179.374 26.3867 180.188 26.1849 180.734 25.7812C181.294 25.3646 181.574 24.8242 181.574 24.1602Z" fill="#C52233"/>
</svg>
